Coordinates
version=1
nRows=7
nColumns=42
inDegrees=yes

Units are S.I. units (second, meters, Newtons, ...)
If the header above contains a line with 'inDegrees', this indicates whether rotational values are in degrees (yes) or radians (no).

endheader
time	pelvis_tilt	pelvis_list	pelvis_rotation	pelvis_tx	pelvis_ty	pelvis_tz	hip_flexion_r	hip_adduction_r	hip_rotation_r	knee_angle_r	knee_adduction_r	knee_angle_r_beta	ankle_angle_r	subtalar_angle_r	mtp_angle_r	hip_flexion_l	hip_adduction_l	hip_rotation_l	knee_angle_l	knee_adduction_l	knee_angle_l_beta	ankle_angle_l	subtalar_angle_l	mtp_angle_l	lumbar_extension	lumbar_bending	lumbar_rotation	arm_flex_r	arm_add_r	arm_rot_r	elbow_flex_r	pro_sup_r	wrist_flex_r	wrist_dev_r	arm_flex_l	arm_add_l	arm_rot_l	elbow_flex_l	pro_sup_l	wrist_flex_l	wrist_dev_l
      0.37000000	      2.55797766	     -4.52250925	     -1.59529519	     -0.55266749	      0.95648238	     -0.22533056	    -17.16619929	      6.80322892	      3.70882547	      5.02392514	      0.43310548	      0.08768404	     14.51330128	     -1.69117233	     -7.99983837	     22.55224131	     -6.96187604	    -10.92178401	      7.20210886	      1.96646725	      0.12570051	      2.40123390	      4.61481132	     -7.99983837	    -15.33526173	      4.98845577	      8.97300396	      0.55820253	    -12.29159088	      2.51524003	     45.62317611	     90.00000001	      0.00000000	      0.00000000	     -4.12449320	     -9.51793327	     -2.60440714	     33.99693267	     90.00000001	      0.00000000	      0.00000000
      0.38000000	      2.44734344	     -4.73110282	     -1.73462117	     -0.53822569	      0.95331068	     -0.22474250	    -17.96925418	      7.00513858	      3.79933068	      5.18164522	      0.40895051	      0.09043677	     14.93672043	     -1.61058744	     -7.99263774	     22.77779649	     -7.15133006	    -10.62540892	      5.97540142	      2.05255428	      0.10429043	      2.44067081	      5.91332898	     -7.99263774	    -15.21363672	      5.00754843	      9.25052011	      0.78212043	    -12.24001684	      2.51350696	     46.02477342	     90.00000001	      0.00000000	      0.00000000	     -4.18189274	     -9.50384928	     -3.07769295	     32.59276685	     90.00000001	      0.00000000	      0.00000000
      0.39000000	      2.41604660	     -4.80972854	     -1.91080653	     -0.52360254	      0.95040386	     -0.22416427	    -18.81277190	      7.04686325	      3.88330236	      5.43726457	      0.37314718	      0.09489817	     15.27305705	     -1.56606338	     -7.98656102	     22.92853539	     -7.20732409	    -10.33268281	      5.29050628	      2.07644151	      0.09233675	      2.52079403	      6.85007564	     -7.98656102	    -15.17493982	      4.85657280	      9.54167198	      0.98525220	    -12.14692225	      2.46296622	     46.28947204	     90.00000001	      0.00000000	      0.00000000	     -4.17519891	     -9.49651802	     -3.62392985	     31.12316680	     90.00000001	      0.00000000	      0.00000000
      0.40000000	      2.59259894	     -4.61649552	     -2.23440220	     -0.50866472	      0.94804436	     -0.22387635	    -19.78964049	      6.63713604	      3.96995506	      5.87990044	      0.48274049	      0.10262362	     15.45351955	     -1.39281260	     -7.96664289	     22.84213569	     -6.94735717	    -10.55327191	      5.15410709	      1.88772476	      0.08995614	      2.67718434	      7.71417191	     -7.96664289	    -15.35730998	      4.39814774	      9.83624017	      1.19650256	    -11.98818154	      2.23838895	     46.50762016	     90.00000001	      0.00000000	      0.00000000	     -4.07805941	     -9.22340352	     -5.37604147	     29.54427064	     90.00000001	      0.00000000	      0.00000000
      0.41000000	      2.53429612	     -4.53429837	     -2.38637950	     -0.49388997	      0.94554960	     -0.22343790	    -20.39557018	      6.53041963	      4.06311173	      6.55000601	      0.38267408	      0.11431917	     15.55386552	     -1.39024838	     -7.96128973	     23.11764593	     -6.78132394	    -10.16353686	      5.58212441	      1.75637280	      0.09742645	      2.67488433	      7.78863228	     -7.96128973	    -15.29144862	      4.04513898	      9.97469359	      1.42731676	    -11.78852230	      2.22691585	     46.50363558	     90.00000001	      0.00000000	      0.00000000	     -4.16450732	     -9.31651381	     -5.58108506	     28.34954579	     90.00000001	      0.00000000	      0.00000000
      0.42000000	      2.58674390	     -4.14498258	     -2.69060210	     -0.47868261	      0.94360578	     -0.22327966	    -20.95125905	      5.92281099	      3.96531935	      7.53388465	      0.46336092	      0.13149109	     15.61894259	     -1.24180847	     -7.93733809	     23.11371631	     -6.25844815	     -9.89304568	      6.21858776	      1.48733298	      0.10853483	      2.36862100	      7.32070931	     -7.93733809	    -15.29788484	      3.35309007	     10.18136377	      1.56867890	    -11.50791129	      1.91762187	     46.38094350	     90.00000001	      0.00000000	      0.00000000	     -3.94371641	     -9.10366436	     -7.44290930	     26.57392967	     90.00000001	      0.00000000	      0.00000000
      0.43000000	      2.60306648	     -3.76124456	     -2.87661992	     -0.46339601	      0.94190666	     -0.22312768	    -21.33835083	      5.40108793	      3.78398407	      8.76075949	      0.46387403	      0.15290410	     15.43154581	     -1.11722731	     -7.90745234	     23.20094045	     -5.71006624	     -9.39912925	      7.27127157	      1.22689353	      0.12690763	      1.89201826	      6.34439086	     -7.90745234	    -15.26596310	      2.65474839	     10.20013667	      1.73021747	    -11.18113855	      1.77137223	     46.13916770	     90.00000001	      0.00000000	      0.00000000	     -3.85360059	     -9.05924058	     -8.69722512	     25.08629088	     90.00000001	      0.00000000	      0.00000000
